# xmcd
#
# Track frame offsets:
#	150
#	21813
#	34543
#	55080
#	68427
#	84227
#	94285
#	105659
#	118245
#	135358
#	150983
#	163511
#	179107
#	192118
#
# Disc length: 3603 seconds
#
# Revision: 1
# Processed by: cddbd v1.5.2PL0 Copyright (c) Steve Scherf et al.
# Submitted via: EasyCDDAExtractor 2010.6.0.0
#
DISCID=a80e110e
DTITLE=Various Artist - Emozioni In Musica-Voglio Andare Via
DYEAR=1998
DGENRE=Italiani
TTITLE0=Ron - Voglio Andare Via 1984
TTITLE1=I Nuovi Angeli - Singapore 1972
TTITLE2=Mango - Australia 1990
TTITLE3=Nicola Di Bari - Vagabondo 1970
TTITLE4=Claudio Baglioni - W L'inghilterra 1973
TTITLE5=Peppino Di Capri - St. Tropez Twist 1965
TTITLE6=Johnny Dorelli - Montecarlo 1961
TTITLE7=Hebert Pagani - Lombardia 1965
TTITLE8=Paolo Conte - Sud America 1979
TTITLE9=Lucio Dalla - Strade Su Strade 1971
TTITLE10=Gino Paoli - A Milano Non Crescono I Fiori 1964
TTITLE11=Marino Barreto Jr. - Arrivederci 1959
TTITLE12=Sergio Caputo - Vado Alle Hawai 1984
TTITLE13=Claudio Rocchi - Volo Magico N.1 1976
EXTD=
EXTT0=
EXTT1=
EXTT2=
EXTT3=
EXTT4=
EXTT5=
EXTT6=
EXTT7=
EXTT8=
EXTT9=
EXTT10=
EXTT11=
EXTT12=
EXTT13=
PLAYORDER=
